<svg xmlns="http://www.w3.org/2000/svg" id="Flat" height="512" viewBox="0 0 64 64" width="512"><path d="m49 1h-44l4 14v48h44v-58a4 4 0 0 0 -4-4z" fill="#f3fcff"></path><path d="m10.639 3a5.9 5.9 0 0 1 .361 2v58h42v-58a3.955 3.955 0 0 0 -.555-2z" fill="#e3f9ff"></path><path d="m5 1a4 4 0 0 1 4 4v10a0 0 0 0 1 0 0h-8a0 0 0 0 1 0 0v-10a4 4 0 0 1 4-4z" fill="#e3f9ff"></path><path d="m31 47a1 1 0 0 0 -1 1v15h2v-15a1 1 0 0 0 -1-1z" fill="#44c8ef"></path><path d="m25.707 54.293-1.707-1.707v-11.586a1 1 0 0 0 -2 0v12a1 1 0 0 0 .293.707l1.707 1.707v7.586h2v-8a1 1 0 0 0 -.293-.707z" fill="#44c8ef"></path><path d="m46 49a1 1 0 0 0 -1 1v5.465l-2.555 1.7a1 1 0 0 0 -.445.835v5h2v-4.465l2.555-1.7a1 1 0 0 0 .445-.835v-6a1 1 0 0 0 -1-1z" fill="#44c8ef"></path><path d="m19.555 57.168-2.555-1.703v-5.465a1 1 0 0 0 -2 0v6a1 1 0 0 0 .445.832l2.555 1.703v4.465h2v-5a1 1 0 0 0 -.445-.832z" fill="#44c8ef"></path><path d="m39 40a1 1 0 0 0 -1 1v11.586l-1.707 1.707a1 1 0 0 0 -.293.707v8h2v-7.586l1.707-1.707a1 1 0 0 0 .293-.707v-12a1 1 0 0 0 -1-1z" fill="#44c8ef"></path><path d="m43.5 17h-5a5.5 5.5 0 0 1 0-11h5a5.5 5.5 0 0 1 0 11zm-5-9a3.5 3.5 0 0 0 0 7h5a3.5 3.5 0 0 0 0-7z" fill="#414655"></path><path d="m23.5 17h-5a5.5 5.5 0 0 1 0-11h5a5.5 5.5 0 0 1 0 11zm-5-9a3.5 3.5 0 0 0 0 7h5a3.5 3.5 0 0 0 0-7z" fill="#414655"></path><circle cx="53" cy="29" fill="#44c8ef" r="10"></circle><path d="m53 40a11 11 0 1 1 11-11 11.013 11.013 0 0 1 -11 11zm0-20a9 9 0 1 0 9 9 9.01 9.01 0 0 0 -9-9z" fill="#2bb9e1"></path><path d="m50.84 34.254-3.547-3.547a1 1 0 0 1 0-1.414 1 1 0 0 1 1.414 0l2.84 2.84 6.293-6.293a1 1 0 0 1 1.414 0 1 1 0 0 1 0 1.414l-7 7a1 1 0 0 1 -1.414 0z" fill="#f3fcff"></path><g fill="#414655"><path d="m30 23h-12a1 1 0 0 1 0-2h12a1 1 0 0 1 0 2z"></path><path d="m30 29h-12a1 1 0 0 1 0-2h12a1 1 0 0 1 0 2z"></path><path d="m30 35h-12a1 1 0 0 1 0-2h12a1 1 0 0 1 0 2z"></path><path d="m39 23h-4a1 1 0 0 1 0-2h4a1 1 0 0 1 0 2z"></path><path d="m39 29h-4a1 1 0 0 1 0-2h4a1 1 0 0 1 0 2z"></path><path d="m39 35h-4a1 1 0 0 1 0-2h4a1 1 0 0 1 0 2z"></path></g><path d="m37 12.5h-12a1 1 0 0 1 0-2h12a1 1 0 0 1 0 2z" fill="#55566b"></path><circle cx="31" cy="47.5" fill="#fac01e" r="2.5"></circle><circle cx="23" cy="41.5" fill="#fac01e" r="2.5"></circle><circle cx="46" cy="49.5" fill="#fac01e" r="2.5"></circle><circle cx="16" cy="49.5" fill="#fac01e" r="2.5"></circle><circle cx="39" cy="41.5" fill="#fac01e" r="2.5"></circle></svg>